<svg version="1.0" xmlns="http://www.w3.org/2000/svg"
 width="50.000000pt" height="50.000000pt" viewBox="0 0 700 600"
 preserveAspectRatio="xMidYMid meet">

<g transform="translate(0.000000,600.000000) scale(0.100000,-0.100000)"
fill="#DBF2BD" stroke="#2F3542" stroke-width="200">
<path d="M2388 5105 c-406 -77 -718 -393 -789 -799 l-11 -64 -65 24 c-110 42
-198 57 -333 57 -190 0 -346 -42 -500 -133 -325 -193 -515 -572 -471 -940 29
-241 128 -439 303 -605 l89 -85 -89 -85 c-132 -125 -215 -259 -266 -425 -165
-547 170 -1114 730 -1236 103 -22 303 -23 400 -1 39 9 101 27 137 41 l65 24
11 -64 c67 -384 341 -680 729 -786 112 -31 353 -31 466 0 385 106 660 404 727
786 l11 64 65 -24 c110 -42 198 -57 333 -57 142 0 241 18 359 64 204 81 375
228 485 418 164 283 175 619 31 916 -54 113 -121 201 -220 293 l-77 71 89 85
c133 126 216 260 267 426 147 486 -103 1003 -575 1189 -118 46 -217 64 -359
64 -135 0 -223 -15 -333 -57 l-65 -24 -11 64 c-67 382 -347 685 -727 785 -104
27 -300 34 -406 14z m422 -1603 c183 -55 307 -128 436 -256 129 -130 205 -259
260 -446 27 -94 27 -386 0 -480 -55 -187 -131 -316 -260 -446 -130 -129 -259
-205 -446 -260 -90 -26 -384 -27 -476 -1 -180 50 -320 132 -450 261 -170 170
-262 364 -282 594 -25 291 67 556 267 765 71 74 188 161 276 205 58 28 185 70
247 81 90 16 353 6 428 -17z"/>
</g>
</svg>
